<?xml version="1.0" standalone="no"?>
<!DOCTYPE svg PUBLIC "-//W3C//DTD SVG 20010904//EN"
 "http://www.w3.org/TR/2001/REC-SVG-20010904/DTD/svg10.dtd">
<svg version="1.0" xmlns="http://www.w3.org/2000/svg"
 width="260.000000pt" height="260.000000pt" viewBox="0 0 260.000000 260.000000"
 preserveAspectRatio="xMidYMid meet">
<metadata>
Created by potrace 1.11, written by Peter Selinger 2001-2013
</metadata>
<g transform="translate(0.000000,260.000000) scale(0.100000,-0.100000)"
fill="#000000" stroke="none">
<path d="M0 1305 l0 -1295 1300 0 1300 0 0 1295 0 1295 -1300 0 -1300 0 0
-1295z m2540 0 l0 -1245 -1245 0 -1245 0 0 1245 0 1245 1245 0 1245 0 0 -1245z"/>
<path d="M800 1305 l0 -595 135 0 135 0 1 73 c1 39 5 200 8 357 l6 284 43
-319 c24 -176 46 -337 49 -357 l6 -38 98 0 c55 0 99 4 99 8 0 16 90 707 94
722 2 8 4 -153 5 -357 l1 -373 140 0 140 0 0 595 0 595 -204 0 -204 0 -10 -72
c-6 -40 -21 -153 -33 -250 -13 -98 -25 -178 -29 -178 -3 0 -21 105 -39 233
-18 127 -35 240 -38 250 -4 15 -22 17 -204 17 l-199 0 0 -595z"/>
</g>
</svg>
