<?xml version="1.0" standalone="no"?>
<!DOCTYPE svg PUBLIC "-//W3C//DTD SVG 20010904//EN"
 "http://www.w3.org/TR/2001/REC-SVG-20010904/DTD/svg10.dtd">
<svg version="1.0" xmlns="http://www.w3.org/2000/svg"
 width="260.000000pt" height="260.000000pt" viewBox="0 0 260.000000 260.000000"
 preserveAspectRatio="xMidYMid meet">
<metadata>
Created by potrace 1.11, written by Peter Selinger 2001-2013
</metadata>
<g transform="translate(0.000000,260.000000) scale(0.100000,-0.100000)"
fill="#000000" stroke="none">
<path d="M0 1305 l0 -1295 1300 0 1300 0 0 1295 0 1295 -1300 0 -1300 0 0
-1295z m2540 0 l0 -1245 -1245 0 -1245 0 0 1245 0 1245 1245 0 1245 0 0 -1245z"/>
<path d="M800 1305 l0 -595 133 0 134 0 6 212 c4 116 7 272 8 347 0 75 2 132
5 126 4 -10 94 -657 94 -676 0 -5 44 -9 100 -9 55 0 100 3 100 8 0 27 91 706
95 710 3 3 5 -157 5 -356 l0 -362 140 0 140 0 0 595 0 595 -205 0 c-113 0
-205 -3 -205 -7 0 -21 -63 -479 -66 -482 -9 -10 -13 13 -43 219 -17 118 -34
227 -37 243 l-6 27 -199 0 -199 0 0 -595z"/>
</g>
</svg>
